<mxfile host="app.diagrams.net" agent="Mozilla/5.0 (Macintosh; Intel Mac OS X 10_15_7) AppleWebKit/537.36 (KHTML, like Gecko) Chrome/138.0.0.0 Safari/537.36" version="27.2.0">
  <diagram name="Page-1" id="akMBkznu3HHjIaaBAwls">
    <mxGraphModel dx="1426" dy="711" grid="1" gridSize="10" guides="1" tooltips="1" connect="1" arrows="1" fold="1" page="1" pageScale="1" pageWidth="850" pageHeight="1100" math="0" shadow="0">
      <root>
        <mxCell id="0" />
        <mxCell id="1" parent="0" />
        <mxCell id="H12RTn7v-GWnv_Xhp-zr-1" value="Drilling of monitoring and injection well 16 A" style="rounded=1;whiteSpace=wrap;html=1;" vertex="1" parent="1">
          <mxGeometry x="200" y="108" width="130" height="60" as="geometry" />
        </mxCell>
        <mxCell id="H12RTn7v-GWnv_Xhp-zr-2" value="Stimulation of 16 A (stages 1-3)" style="rounded=1;whiteSpace=wrap;html=1;" vertex="1" parent="1">
          <mxGeometry x="200" y="200" width="130" height="60" as="geometry" />
        </mxCell>
        <mxCell id="H12RTn7v-GWnv_Xhp-zr-3" value="Drilling of 16B (production well)" style="rounded=1;whiteSpace=wrap;html=1;" vertex="1" parent="1">
          <mxGeometry x="200" y="290" width="130" height="60" as="geometry" />
        </mxCell>
        <mxCell id="H12RTn7v-GWnv_Xhp-zr-4" value="Circulation test 1" style="rounded=1;whiteSpace=wrap;html=1;" vertex="1" parent="1">
          <mxGeometry x="200" y="379" width="130" height="60" as="geometry" />
        </mxCell>
        <mxCell id="H12RTn7v-GWnv_Xhp-zr-5" value="Stimulation of 16 A (stages 3R-10)" style="rounded=1;whiteSpace=wrap;html=1;" vertex="1" parent="1">
          <mxGeometry x="200" y="470" width="130" height="60" as="geometry" />
        </mxCell>
        <mxCell id="H12RTn7v-GWnv_Xhp-zr-6" value="Activities at Utah FORGE" style="text;html=1;align=center;verticalAlign=middle;whiteSpace=wrap;rounded=0;" vertex="1" parent="1">
          <mxGeometry x="180" y="60" width="160" height="30" as="geometry" />
        </mxCell>
        <mxCell id="H12RTn7v-GWnv_Xhp-zr-8" value="" style="rounded=1;whiteSpace=wrap;html=1;" vertex="1" parent="1">
          <mxGeometry x="380" y="50" width="260" height="710" as="geometry" />
        </mxCell>
        <mxCell id="H12RTn7v-GWnv_Xhp-zr-10" value="Stimulation of 16 B (stages 1-5)" style="rounded=1;whiteSpace=wrap;html=1;" vertex="1" parent="1">
          <mxGeometry x="200" y="560" width="130" height="60" as="geometry" />
        </mxCell>
        <mxCell id="H12RTn7v-GWnv_Xhp-zr-11" value="Circulation Test 2" style="rounded=1;whiteSpace=wrap;html=1;" vertex="1" parent="1">
          <mxGeometry x="200" y="650" width="130" height="60" as="geometry" />
        </mxCell>
        <mxCell id="H12RTn7v-GWnv_Xhp-zr-12" value="Data set for conceptual DFNs" style="text;html=1;align=center;verticalAlign=middle;whiteSpace=wrap;rounded=0;" vertex="1" parent="1">
          <mxGeometry x="450" y="60" width="110" height="30" as="geometry" />
        </mxCell>
        <mxCell id="H12RTn7v-GWnv_Xhp-zr-13" value="well logs (16A), borehole images (basis for stochastic DFN)" style="rounded=0;whiteSpace=wrap;html=1;" vertex="1" parent="1">
          <mxGeometry x="400" y="114" width="220" height="48" as="geometry" />
        </mxCell>
        <mxCell id="H12RTn7v-GWnv_Xhp-zr-14" value="well logs (16B), borehole images (basis for stochastic DFN)" style="rounded=0;whiteSpace=wrap;html=1;" vertex="1" parent="1">
          <mxGeometry x="400" y="296" width="220" height="48" as="geometry" />
        </mxCell>
        <mxCell id="H12RTn7v-GWnv_Xhp-zr-15" value="microseismic data, perforation locations&amp;nbsp;&lt;div&gt;(stage 1-3)&amp;nbsp;&lt;/div&gt;" style="rounded=0;whiteSpace=wrap;html=1;" vertex="1" parent="1">
          <mxGeometry x="400" y="206" width="220" height="48" as="geometry" />
        </mxCell>
        <mxCell id="H12RTn7v-GWnv_Xhp-zr-16" value="microseismic&amp;nbsp;data, fluid flow distribution" style="rounded=0;whiteSpace=wrap;html=1;" vertex="1" parent="1">
          <mxGeometry x="400" y="385" width="220" height="48" as="geometry" />
        </mxCell>
        <mxCell id="H12RTn7v-GWnv_Xhp-zr-17" value="microseismic data, perforation locations&amp;nbsp;&lt;div&gt;(stage 3R-10) , hits in 16 B&lt;/div&gt;" style="rounded=0;whiteSpace=wrap;html=1;" vertex="1" parent="1">
          <mxGeometry x="400" y="476" width="220" height="48" as="geometry" />
        </mxCell>
        <mxCell id="H12RTn7v-GWnv_Xhp-zr-18" value="Active hits from 16A stimulation&amp;nbsp;" style="rounded=0;whiteSpace=wrap;html=1;" vertex="1" parent="1">
          <mxGeometry x="400" y="572" width="220" height="48" as="geometry" />
        </mxCell>
        <mxCell id="H12RTn7v-GWnv_Xhp-zr-19" value="microseismic&amp;nbsp;data, fluid flow distribution 16A and 16B&amp;nbsp;" style="rounded=0;whiteSpace=wrap;html=1;" vertex="1" parent="1">
          <mxGeometry x="400" y="656" width="220" height="48" as="geometry" />
        </mxCell>
      </root>
    </mxGraphModel>
  </diagram>
</mxfile>
